<?xml version="1.0" standalone="no"?><svg xmlns="http://www.w3.org/2000/svg" viewBox="0 0 1440 320"><path fill="#012a4a" fill-opacity="1" d="M0,64L34.3,96C68.6,128,137,192,206,229.3C274.3,267,343,277,411,272C480,267,549,245,617,208C685.7,171,754,117,823,117.3C891.4,117,960,171,1029,170.7C1097.1,171,1166,117,1234,101.3C1302.9,85,1371,107,1406,117.3L1440,128L1440,0L1405.7,0C1371.4,0,1303,0,1234,0C1165.7,0,1097,0,1029,0C960,0,891,0,823,0C754.3,0,686,0,617,0C548.6,0,480,0,411,0C342.9,0,274,0,206,0C137.1,0,69,0,34,0L0,0Z"></path></svg>